<?xml version="1.0" encoding="UTF-8" standalone="no"?>
<svg xmlns:dc="http://purl.org/dc/elements/1.1/" xmlns:cc="http://creativecommons.org/ns#" xmlns:rdf="http://www.w3.org/1999/02/22-rdf-syntax-ns#" xmlns:svg="http://www.w3.org/2000/svg" xmlns="http://www.w3.org/2000/svg" id="svg8" version="1.1" viewBox="0 0 198.50697 188.27105" height="188.27106mm" width="198.50694mm">
  <defs id="defs2"/>
  <metadata id="metadata5">
    <rdf:RDF>
      <cc:Work rdf:about="">
        <dc:format>image/svg+xml</dc:format>
        <dc:type rdf:resource="http://purl.org/dc/dcmitype/StillImage"/>
        <dc:title/>
      </cc:Work>
    </rdf:RDF>
  </metadata>
  <g transform="translate(0.38602102,0.1139994)" id="g840">
    <g id="layer1" transform="translate(41.988536,21.311157)">
      <path style="fill:#ff0000;fill-opacity:1;stroke-width:0.26458335" d="m 73.830016,120.83559 c -0.91483,-0.84649 -6.29242,-5.79981 -11.95021,-11.00738 l -10.28688,-9.4683 -9.860702,9.84777 c -5.423385,5.41627 -9.98232,9.80404 -10.130969,9.7506 -0.40098,-0.14415 -9.837693,-8.79323 -9.837693,-9.01659 0,-0.10526 4.225889,-4.74942 9.390865,-10.32035 5.164975,-5.570925 9.391694,-10.195285 9.392708,-10.276345 0.001,-0.0811 -4.73089,-4.50513 -10.515344,-9.831254 C 16.615637,68.160605 17.794812,69.364404 17.794812,68.021217 c 0,-1.086767 0.16813,-1.292713 8.236388,-10.088917 4.530013,-4.938727 8.540991,-9.143863 8.913283,-9.344745 1.397689,-0.75417 1.892776,-0.37477 13.729155,10.521048 l 11.319908,10.420389 1.93945,-2.086014 c 1.06669,-1.147309 2.71885,-2.949144 3.67145,-4.004079 l 1.73201,-1.918063 -1.18764,-1.389229 c -0.65321,-0.764075 -2.45367,-2.725418 -4.00103,-4.358541 -1.54737,-1.633121 -2.81339,-3.075714 -2.81339,-3.20576 0,-0.276466 9.80647,-9.567635 10.09827,-9.567635 0.10836,0 4.81597,4.770231 10.46136,10.600512 l 10.26433,10.600512 v 3.396995 3.396996 l 1.5875,3.120543 c 0.87312,1.716297 1.62456,3.208131 1.66986,3.315187 0.1139,0.269211 -4.42092,5.256759 -4.7796,5.256759 -0.1595,0 -2.64894,-2.41102 -5.53208,-5.357816 l -5.24207,-5.357813 -0.99556,1.084546 c -0.54755,0.5965 -2.08795,2.332564 -3.42312,3.857918 l -2.42756,2.773373 10.23277,9.413802 c 15.03873,13.835115 13.54007,12.324805 13.54007,13.645325 0,0.96301 -0.16859,1.31403 -1.14089,2.37543 -12.13448,13.24647 -15.59738,16.95821 -15.94623,17.09207 -0.23026,0.0884 -0.82129,0.16066 -1.31338,0.16066 -0.72341,0 -1.21321,-0.2947 -2.55805,-1.53908 z m 3.3908,0.27825 c 0.1604,-0.10691 3.9455,-4.17926 8.41134,-9.04966 5.8392,-6.36818 8.09809,-9.00486 8.04274,-9.38786 -0.11656,-0.8066 -56.975435,-53.062066 -57.736533,-53.062066 -0.44973,0 -2.65984,2.248961 -8.842407,8.997844 -4.533546,4.948815 -8.242811,9.180144 -8.242811,9.402954 0,0.22281 0.446485,0.86398 0.992188,1.42482 0.864401,0.888381 52.344203,48.251198 55.307353,50.884278 1.12047,0.99565 1.52653,1.1507 2.06813,0.78969 z m -7.65891,-7.04959 c -2.34048,-2.1981 -2.33617,-2.16107 -0.46283,-3.9764 l 1.07533,-1.04202 0.73156,0.63819 c 1.76431,1.53913 3.77426,3.56748 3.77426,3.80881 0,0.42996 -2.1926,2.5323 -2.63477,2.5263 -0.22436,-0.003 -1.34196,-0.88274 -2.48355,-1.95488 z m 5.20558,-1.94429 c -2.35311,-2.14528 -4.35551,-4.1091 -4.44977,-4.36405 -0.21523,-0.58209 1.63001,-2.82248 2.33503,-2.83507 0.59583,-0.0106 9.17123,7.84526 9.17123,8.40174 0,0.59563 -1.82027,2.7024 -2.33281,2.69998 -0.24492,-0.001 -2.37058,-1.75733 -4.72368,-3.9026 z m 4.2743,-2.87201 c -1.81677,-1.6899 -3.30322,-3.24744 -3.30322,-3.4612 0,-0.58347 1.85223,-2.72804 2.34697,-2.71739 0.50619,0.0109 7.00456,5.93867 7.13365,6.50728 0.12761,0.56206 -1.74789,2.74386 -2.35865,2.74386 -0.29175,0 -1.94938,-1.33372 -3.81875,-3.07255 z m -14.55649,0.13404 c -0.94123,-0.90381 -1.71132,-1.74613 -1.71132,-1.87184 0,-0.40276 2.16981,-2.59798 2.5679,-2.59798 0.53528,0 3.50385,2.68916 3.51137,3.18086 0.008,0.49224 -1.42919,2.27533 -2.13973,2.65561 -0.44144,0.23625 -0.76677,0.0367 -2.22822,-1.36665 z m 19.73495,-2.15242 c -1.17032,-1.05629 -2.12872,-2.09462 -2.12977,-2.30739 -0.002,-0.49647 2.10738,-2.65585 2.59492,-2.65585 0.44076,0 4.28233,3.66498 4.28233,4.08548 0,0.4001 -1.51559,2.20742 -2.1243,2.53319 -0.41375,0.22144 -0.84578,-0.0512 -2.62318,-1.65543 z m -24.71,-2.45387 c -0.84917,-0.79629 -1.50401,-1.55845 -1.45521,-1.69369 0.15923,-0.44126 2.35964,-2.66776 2.63649,-2.66776 0.33452,0 3.40537,2.90475 3.40537,3.22119 0,0.4328 -2.18317,2.59966 -2.61338,2.59385 -0.23613,-0.003 -1.1241,-0.6573 -1.97327,-1.45359 z m 7.56321,0.23848 c -0.76398,-0.66439 -1.38829,-1.3461 -1.38735,-1.5149 0.002,-0.43517 2.09201,-2.82045 2.47082,-2.82045 0.4339,0 3.08412,2.34967 3.08201,2.7325 -0.002,0.43832 -2.0918,2.82509 -2.46627,2.8173 -0.17058,-0.004 -0.93522,-0.55005 -1.69921,-1.21445 z m 19.38073,-2.52099 c -1.60073,-1.47242 -2.94373,-2.869945 -2.98444,-3.105625 -0.0829,-0.47987 1.29976,-2.27147 2.07195,-2.68473 0.42656,-0.22829 0.95561,0.15217 3.55113,2.55376 1.67745,1.552105 3.0499,2.993035 3.0499,3.202075 0,0.5737 -1.85419,2.71854 -2.34697,2.71486 -0.23713,-0.002 -1.74084,-1.20793 -3.34157,-2.68034 z m -13.64037,0.92476 c -0.71972,-0.67322 -1.30859,-1.32946 -1.30859,-1.45832 0,-0.427 2.17643,-2.603705 2.60337,-2.603705 0.43496,0 2.6883,2.055345 2.6883,2.452085 0,0.33162 -1.88699,2.53177 -2.31094,2.69445 -0.20306,0.0779 -0.94127,-0.40087 -1.67214,-1.08451 z m 6.56277,-0.64474 c -0.69123,-0.59247 -1.25677,-1.24921 -1.25677,-1.45942 0,-0.46405 2.06457,-2.752305 2.48109,-2.749905 0.42767,0.002 2.81142,2.097525 2.80609,2.466265 -0.005,0.35307 -2.25417,2.82458 -2.56798,2.82197 -0.11311,-0.001 -0.77121,-0.48645 -1.46243,-1.07891 z m -16.16848,-1.32311 c -0.67533,-0.59445 -1.22788,-1.28404 -1.22788,-1.532415 0,-0.44389 2.06818,-2.67843 2.47903,-2.67843 0.34001,0 2.48734,1.84138 2.65409,2.27595 0.14401,0.37527 -2.03285,3.015715 -2.48624,3.015715 -0.10512,0 -0.74367,-0.48637 -1.419,-1.08082 z M 45.646561,92.009495 c -5.78376,-5.35023 -10.55389,-9.92481 -10.600288,-10.16574 -0.12456,-0.646783 2.183054,-2.970293 2.669013,-2.687393 1.080819,0.629198 20.97033,19.278383 21.04652,19.734053 0.0578,0.34563 -0.30839,0.93624 -1.04727,1.689105 -0.62488,0.63671 -1.22973,1.15765 -1.3441,1.15765 -0.11437,0 -4.94011,-4.377455 -10.723875,-9.727675 z m 23.259025,7.8374 c -0.75301,-0.61254 -1.36911,-1.30599 -1.36911,-1.541 0,-0.53505 2.12929,-2.65414 2.66691,-2.65414 0.21885,0 0.91042,0.5222 1.5368,1.16044 1.30145,1.32607 1.27895,1.48979 -0.43241,3.14763 l -1.03309,1.000785 z m 6.43019,-0.78925 c -0.65159,-0.60062 -1.18471,-1.29021 -1.18471,-1.53242 0,-0.43218 2.07242,-2.66722 2.47316,-2.66722 0.31602,0 2.51653,1.90218 2.67339,2.31094 0.13917,0.36269 -2.09425,2.980725 -2.54284,2.980725 -0.12886,0 -0.76741,-0.491415 -1.419,-1.092025 z m -15.875,-1.05834 c -0.65159,-0.60062 -1.18471,-1.26255 -1.18471,-1.47096 0,-0.51897 1.87935,-2.72867 2.32074,-2.72867 0.61122,0 2.70634,1.93028 2.70634,2.49341 0,0.50838 -1.99854,2.79825 -2.44225,2.79825 -0.11847,0 -0.74853,-0.49141 -1.40012,-1.09203 z m 21.23873,-0.79682 c -0.69123,-0.59215 -1.25678,-1.27758 -1.25678,-1.52318 0,-0.48453 2.08984,-2.67338 2.55246,-2.67338 0.4135,0 2.73921,2.10547 2.73921,2.47982 0,0.2996 -2.38993,2.82247 -2.65492,2.8026 -0.0678,-0.005 -0.68875,-0.49372 -1.37997,-1.08586 z m -15.74681,-0.96331 c -0.62072,-0.54136 -1.12673,-1.14285 -1.12448,-1.33664 0.007,-0.59465 1.88926,-2.69036 2.41646,-2.69036 0.67205,0 2.61472,1.79151 2.61472,2.41127 0,0.63983 -1.77965,2.61826 -2.34589,2.60791 -0.23773,-0.004 -0.94009,-0.45082 -1.56081,-0.99218 z m 6.68747,-0.61323 c -0.65629,-0.60495 -1.19327,-1.28085 -1.19327,-1.50199 0,-0.60295 1.82163,-2.70714 2.33282,-2.69468 0.56291,0.0137 2.69426,1.92194 2.69426,2.41221 0,0.46293 -1.46303,2.25421 -2.13475,2.6137 -0.41786,0.22363 -0.71321,0.0795 -1.69906,-0.82924 z m -16.14814,-1.3308 c -0.65159,-0.60062 -1.18471,-1.25812 -1.18471,-1.46112 0,-0.45531 2.07203,-2.7397 2.48109,-2.73539 0.28772,0.003 2.81057,2.29378 2.81057,2.552 0,0.33809 -2.24448,2.73654 -2.56087,2.73654 -0.19875,0 -0.89449,-0.49142 -1.54608,-1.09203 z m 21.20983,-0.78254 c -0.67533,-0.59445 -1.22299,-1.27906 -1.21703,-1.52136 0.013,-0.52748 1.9116,-2.68949 2.36182,-2.68949 0.60671,0 2.65442,1.90487 2.65442,2.46925 0,0.49742 -1.97627,2.82242 -2.39909,2.82242 -0.0947,0 -0.72479,-0.48637 -1.40012,-1.08082 z m -15.63417,-0.87754 c -1.43069,-1.33232 -1.41577,-1.46542 0.35673,-3.18301 l 1.07358,-1.04032 1.26247,1.06942 c 0.69436,0.58817 1.30089,1.26428 1.34785,1.50246 0.10715,0.54351 -1.78912,2.79568 -2.36375,2.80738 -0.23446,0.005 -0.98905,-0.5154 -1.67688,-1.15593 z m 6.4705,-0.84378 c -0.72855,-0.68146 -1.32462,-1.34446 -1.32462,-1.47331 0,-0.427 2.17643,-2.60372 2.60337,-2.60372 0.44639,0 2.68829,2.0602 2.68829,2.47042 0,0.28142 -1.77663,2.32201 -2.29415,2.635 -0.23082,0.1396 -0.79502,-0.20724 -1.67289,-1.02839 z m -16.0862,-1.24277 c -0.61238,-0.62398 -1.113423,-1.24455 -1.113423,-1.37905 0,-0.40803 2.198673,-2.51354 2.624763,-2.51354 0.44441,0 2.6669,2.07712 2.6669,2.49247 0,0.43481 -2.19193,2.53461 -2.64583,2.53461 -0.23044,0 -0.92003,-0.51052 -1.53241,-1.13449 z m 21.12565,-0.86527 c -1.22498,-1.32894 -1.23601,-1.23689 0.35476,-2.96118 0.43632,-0.47294 0.97831,-0.85501 1.20442,-0.84904 0.5061,0.0134 2.66008,1.92582 2.66008,2.36182 0,0.17401 -0.43106,0.84245 -0.95791,1.4854 -1.24528,1.5197 -1.83258,1.51304 -3.26135,-0.037 z m -15.19036,-0.40398 c -0.67533,-0.59445 -1.22788,-1.28403 -1.22788,-1.53241 0,-0.4439 2.06818,-2.67843 2.47903,-2.67843 0.52529,0 2.54805,1.96021 2.54805,2.46925 0,0.49742 -1.97627,2.82241 -2.39908,2.82241 -0.0947,0 -0.72479,-0.48636 -1.40012,-1.08082 z m 6.23554,-1.112 c -0.61238,-0.62398 -1.11342,-1.24455 -1.11342,-1.37905 0,-0.40803 2.19868,-2.51354 2.62476,-2.51354 0.41335,0 2.66691,2.06372 2.66691,2.44225 0,0.42474 -2.19319,2.58483 -2.62444,2.58483 -0.24221,0 -0.94143,-0.51052 -1.55381,-1.13449 z m -16.040584,-1.22463 -1.281232,-1.3008 1.134158,-1.34504 c 0.623784,-0.73977 1.319371,-1.34504 1.545746,-1.34504 0.503057,0 2.680572,2.09138 2.680572,2.57454 0,0.4441 -2.083889,2.71713 -2.491035,2.71713 -0.168839,0 -0.883534,-0.58536 -1.588209,-1.30079 z m 21.067674,-0.89204 c -0.61239,-0.62397 -1.11343,-1.22194 -1.11343,-1.32883 0,-0.39763 2.1996,-2.56376 2.60337,-2.56376 0.45997,0 2.6883,2.066 2.6883,2.49247 0,0.43482 -2.19193,2.53461 -2.64583,2.53461 -0.23045,0 -0.92003,-0.51052 -1.53241,-1.13449 z m -15.27455,-0.4867 c -0.65159,-0.60062 -1.18394,-1.2257 -1.183,-1.38907 0.002,-0.42767 2.09754,-2.811417 2.46627,-2.806089 0.35307,0.0051 2.82459,2.254169 2.82198,2.567979 -0.003,0.40483 -2.16379,2.71921 -2.53833,2.71921 -0.21021,0 -0.91532,-0.49142 -1.56692,-1.09203 z m 6.28977,-1.00529 c -0.61846,-0.55951 -1.12448,-1.16257 -1.12448,-1.34014 0,-0.43886 1.52002,-2.328643 2.13981,-2.660346 0.41136,-0.220152 0.7137,-0.07167 1.694,0.831943 0.6563,0.604953 1.19327,1.301453 1.19327,1.547763 0,0.62367 -1.79743,2.66211 -2.33572,2.64891 -0.24332,-0.006 -0.94842,-0.46863 -1.56688,-1.02813 z m -15.742709,-0.97144 c -0.691224,-0.66572 -1.256771,-1.32181 -1.256771,-1.45798 0,-0.4368 2.16885,-2.617014 2.60337,-2.617014 0.468628,0 2.690816,2.072044 2.683815,2.502484 -0.0054,0.32979 -2.273504,2.79054 -2.567983,2.78605 -0.113112,-0.002 -0.771207,-0.54782 -1.462431,-1.21354 z m 21.023319,-0.97615 c -0.61238,-0.62398 -1.11342,-1.226377 -1.11342,-1.338674 0,-0.316016 1.90218,-2.516529 2.31094,-2.673385 0.36269,-0.139178 2.98072,2.094246 2.98072,2.542831 0,0.438688 -2.18226,2.603718 -2.62444,2.603718 -0.24221,0 -0.94142,-0.51052 -1.5538,-1.13449 z m -15.610418,-0.79375 c -0.612383,-0.623976 -1.113422,-1.221948 -1.113422,-1.328832 0,-0.409215 2.205543,-2.563762 2.62444,-2.563762 0.52038,0 2.77167,2.214666 2.63151,2.588689 -0.23833,0.635984 -2.12644,2.438395 -2.55434,2.438395 -0.26112,0 -0.975807,-0.51052 -1.588188,-1.13449 z m 6.625638,-0.669945 c -0.62379,-0.548148 -1.12448,-1.225447 -1.12448,-1.521129 0,-0.293156 0.53015,-1.053307 1.1781,-1.689225 1.04786,-1.028393 1.23067,-1.116446 1.65365,-0.796494 1.17462,0.888524 2.19534,1.979962 2.19534,2.347442 0,0.459264 -2.08626,2.675841 -2.50249,2.658811 -0.1516,-0.006 -0.78165,-0.45594 -1.40012,-0.999405 z M 40.21825,80.17637 c -0.691224,-0.648406 -1.256771,-1.28447 -1.256771,-1.413475 0,-0.415973 2.148907,-2.690307 2.54194,-2.690307 0.465292,0 2.749727,2.066049 2.749727,2.486861 0,0.373065 -2.205158,2.80652 -2.537609,2.800323 -0.132284,-0.0024 -0.806063,-0.534998 -1.497287,-1.183402 z m -8.598958,-1.093515 c -0.909506,-0.810204 -1.652236,-1.610603 -1.650512,-1.778664 0.0033,-0.325855 2.304058,-2.819916 2.599465,-2.817915 0.33354,0.0024 3.482812,2.952488 3.481109,3.261092 -0.0024,0.438346 -2.092445,2.824631 -2.466274,2.815863 -0.170578,-0.004 -1.054283,-0.670171 -1.963788,-1.480376 z m 29.368754,-0.0805 c -0.61847,-0.559507 -1.12448,-1.212128 -1.12448,-1.450269 0,-0.461229 2.02242,-2.802411 2.42086,-2.802411 0.40933,0 2.60622,2.165387 2.60622,2.568855 0,0.581409 -1.85454,2.724354 -2.34698,2.711961 -0.23713,-0.006 -0.93716,-0.46863 -1.55562,-1.028136 z M 45.631152,78.377677 c -0.612384,-0.623972 -1.113423,-1.23462 -1.113423,-1.356995 0,-0.265578 1.797378,-2.313493 2.294155,-2.613935 0.230814,-0.139594 0.795017,0.207243 1.672894,1.028393 0.728541,0.681464 1.324618,1.344457 1.324618,1.473314 0,0.438692 -2.182259,2.603717 -2.624442,2.603717 -0.24221,0 -0.941422,-0.510521 -1.553802,-1.134494 z m 6.199874,-1.00466 c -0.67533,-0.59445 -1.22647,-1.219528 -1.22474,-1.389062 0.003,-0.30272 2.29089,-2.821784 2.56274,-2.821784 0.38798,0 2.72579,2.225045 2.72579,2.594311 0,0.490082 -2.07146,2.697356 -2.53138,2.697356 -0.1675,0 -0.85708,-0.486368 -1.53241,-1.080821 z M 36.514083,76.759912 c -0.691224,-0.637514 -1.256002,-1.261322 -1.255062,-1.38624 0.0032,-0.420298 2.152224,-2.740668 2.538331,-2.740668 0.464049,0 2.752314,2.064571 2.749919,2.481094 -0.0025,0.426706 -2.096868,2.811113 -2.466274,2.80775 -0.170579,-0.0016 -0.87569,-0.524423 -1.566914,-1.161936 z m 20.637503,-1.322917 c -0.69123,-0.637514 -1.25677,-1.236657 -1.25677,-1.331428 0,-0.271455 2.42694,-2.795479 2.68795,-2.795479 0.427,0 2.60371,2.176428 2.60371,2.60337 0,0.46768 -2.07079,2.689894 -2.50248,2.685473 -0.1516,-0.0016 -0.84119,-0.524422 -1.53241,-1.161936 z M 26.968462,74.769872 25.346878,73.20257 26.428585,71.925601 c 0.594939,-0.702334 1.27538,-1.315162 1.512091,-1.361837 0.522823,-0.103089 3.61247,2.557039 3.61247,3.110273 0,0.501856 -2.105959,2.663134 -2.594972,2.663134 -0.20247,0 -1.09784,-0.705284 -1.989712,-1.567299 z m 14.958522,0.168222 c -0.612382,-0.623972 -1.113421,-1.244544 -1.113421,-1.379048 0,-0.40803 2.198677,-2.513542 2.624761,-2.513542 0.413348,0 2.666905,2.063721 2.666905,2.44225 0,0.424746 -2.193187,2.584834 -2.624442,2.584834 -0.24221,0 -0.941421,-0.510522 -1.553803,-1.134494 z m 6.464454,-0.740077 c -0.67533,-0.59445 -1.227875,-1.232529 -1.227875,-1.417957 0,-0.422344 2.065218,-2.792889 2.433164,-2.792889 0.375496,0 2.858499,2.106073 2.858499,2.424565 0,0.40482 -2.162216,2.867102 -2.517705,2.867102 -0.175014,0 -0.870752,-0.486368 -1.546083,-1.080821 z M 32.809917,73.389983 c -0.691224,-0.592146 -1.256771,-1.277575 -1.256771,-1.523175 0,-0.484529 2.08984,-2.673387 2.552452,-2.673387 0.413506,0 2.739214,2.105477 2.739214,2.479828 0,0.299599 -2.389932,2.82247 -2.654921,2.802599 -0.06776,-0.0051 -0.68875,-0.49372 -1.379974,-1.085865 z m 20.372919,-1.573022 c -0.69123,-0.592466 -1.25677,-1.195417 -1.25677,-1.339888 0,-0.389641 2.15258,-2.871429 2.48881,-2.869444 0.46545,0.0027 2.80285,2.11956 2.80285,2.538332 0,0.46405 -2.06457,2.752315 -2.48109,2.749917 -0.16337,-0.0011 -0.86258,-0.486452 -1.5538,-1.078917 z M 38.233875,71.551925 c -0.618464,-0.591458 -1.124479,-1.210744 -1.124479,-1.376196 0,-0.449442 2.165707,-2.569808 2.624761,-2.569808 0.444413,0 2.666906,2.077125 2.666906,2.49247 0,0.430504 -2.189991,2.53487 -2.634776,2.531761 -0.224363,-0.0016 -0.913948,-0.48677 -1.532412,-1.078227 z M 22.226583,70.427872 c -1.127787,-1.053129 -2.050521,-2.062023 -2.050521,-2.241986 0,-0.464803 2.110586,-2.696632 2.550139,-2.696632 0.436632,0 4.593611,3.913511 4.593611,4.32457 0,0.450863 -2.182223,2.556007 -2.634776,2.541712 -0.224363,-0.0071 -1.330667,-0.874535 -2.458453,-1.927664 z m 22.152944,0.05477 c -0.651593,-0.600617 -1.184714,-1.204781 -1.184714,-1.342587 0,-0.137806 0.568112,-0.846105 1.262472,-1.573997 l 1.262473,-1.32344 1.383361,1.125313 c 0.760849,0.618922 1.38336,1.308112 1.38336,1.531533 0,0.499096 -2.094227,2.675209 -2.574541,2.675209 -0.191236,0 -0.880819,-0.491413 -1.532411,-1.092031 z M 26.961732,67.971095 c -1.840347,-1.690925 -3.346087,-3.273479 -3.346087,-3.516786 0,-0.532018 2.215414,-2.770626 2.606215,-2.633501 0.501358,0.175917 6.918873,6.144364 6.914303,6.430472 -0.0056,0.349172 -2.276591,2.794224 -2.595332,2.794224 -0.128156,0 -1.738751,-1.383485 -3.579099,-3.074409 z M 49.74325,68.64196 c -0.691224,-0.592466 -1.256771,-1.249201 -1.256771,-1.459412 0,-0.464049 2.064567,-2.752314 2.481097,-2.749919 0.42767,0.0025 2.81142,2.097539 2.80609,2.466274 -0.005,0.353069 -2.25417,2.824584 -2.56798,2.821975 -0.11312,-0.0011 -0.771212,-0.486452 -1.462436,-1.078918 z M 34.529708,68.182738 c -0.618463,-0.543467 -1.124479,-1.143431 -1.124479,-1.333253 0,-0.189823 0.431061,-0.871185 0.957914,-1.51414 1.245281,-1.519701 1.832575,-1.513038 3.261352,0.037 1.224974,1.328941 1.236002,1.236891 -0.354763,2.961179 -0.436319,0.472943 -0.978311,0.854819 -1.204426,0.848615 -0.226115,-0.0062 -0.917134,-0.455936 -1.535598,-0.999401 z m 6.418796,-0.867206 c -0.656301,-0.604958 -1.193275,-1.27308 -1.193275,-1.484717 0,-0.581408 1.854542,-2.724353 2.346977,-2.711959 0.583654,0.01469 2.680107,1.941539 2.680107,2.463286 0,0.480346 -1.422989,2.181701 -2.150304,2.570947 -0.39786,0.212929 -0.715073,0.05511 -1.683505,-0.837557 z m 4.75394,-2.389142 c -0.651592,-0.600617 -1.183304,-1.225695 -1.181579,-1.389062 0.003,-0.287725 2.293778,-2.810574 2.551996,-2.810574 0.368617,0 2.736535,2.25937 2.736535,2.61109 0,0.50306 -2.09138,2.680577 -2.574541,2.680577 -0.191236,0 -0.880819,-0.491414 -1.532411,-1.092031 z M 29.470696,63.480018 c -1.328507,-1.250601 -2.415467,-2.475967 -2.415467,-2.723037 0,-0.671411 2.251181,-2.786228 2.6873,-2.524519 0.981869,0.589208 4.984186,4.497118 4.974765,4.857419 -0.01456,0.556676 -1.943314,2.663957 -2.438275,2.663957 -0.21607,0 -1.479815,-1.023219 -2.808323,-2.27382 z m 7.429205,0.08099 c -0.612382,-0.623971 -1.113422,-1.221944 -1.113422,-1.328828 0,-0.397632 2.199595,-2.563761 2.60337,-2.563761 0.472269,0 2.694206,2.076742 2.677446,2.502484 -0.02046,0.519794 -2.045199,2.524599 -2.549697,2.524599 -0.277352,0 -1.005315,-0.510522 -1.617697,-1.134494 z m 5.157983,-1.985515 c -0.538856,-0.551839 -0.979738,-1.185252 -0.979738,-1.407584 0,-0.554194 1.801217,-2.616157 2.28533,-2.616157 0.543576,0 2.741753,1.879188 2.741753,2.343883 0,0.683383 -1.846551,2.683201 -2.477559,2.683201 -0.334371,0 -1.014582,-0.434764 -1.569786,-1.003343 z m -9.678655,-2.149092 c -1.219143,-1.137757 -2.171643,-2.194454 -2.116666,-2.348216 0.15597,-0.436227 2.349771,-2.701431 2.616277,-2.701431 0.131025,0 1.2811,0.994773 2.555723,2.210606 l 2.317495,2.210606 -1.139718,1.361269 c -0.626846,0.748698 -1.336992,1.355542 -1.578103,1.348542 -0.24111,-0.007 -1.435864,-0.943619 -2.655008,-2.081376 z m 5.843589,-1.421641 c -0.612382,-0.623971 -1.113422,-1.221944 -1.113422,-1.328828 0,-0.40475 2.203122,-2.563634 2.613385,-2.560909 0.494606,0.0033 2.678282,2.004443 2.678282,2.454423 0,0.460842 -2.171359,2.569808 -2.645834,2.569808 -0.230444,0 -0.92003,-0.510522 -1.532411,-1.134494 z m -3.439584,-3.175 c -0.612382,-0.623971 -1.112152,-1.24905 -1.1106,-1.389062 0.0044,-0.398139 2.33561,-2.827287 2.61624,-2.726168 0.432305,0.155772 2.672605,2.355639 2.672605,2.62437 0,0.4547 -2.169899,2.625354 -2.624442,2.625354 -0.24221,0 -0.941421,-0.510522 -1.553803,-1.134494 z" id="path896"/>
    </g>
    <path id="path1349" d="m 76.204888,44.124463 -3.202906,2.038118 -0.356049,-0.559139 -3.456636,2.199349 0.364318,0.573609 c -0.37283,0.225529 -0.754761,0.460141 -1.152385,0.713135 -2.548851,1.62175 -4.485729,3.108848 -4.34237,3.334163 l 0.218591,0.343649 c -20.682307,14.7379 -29.529603,41.142106 -21.869468,65.382063 7.088634,22.43147 26.81154,38.25431 49.839854,40.63111 0.34637,1.35952 1.14694,2.60727 2.35231,3.49022 h -0.0718 v 5.52731 h 0.004 a 0.50005002,0.50005002 0 0 0 -0.004,0.0641 v 2.7187 h -2.51716 a 0.50005002,0.50005002 0 1 0 0,0.99994 h 3.51762 v -3.71864 a 0.50005002,0.50005002 0 0 0 -0.004,-0.0641 h 0.003 v -4.96455 c 0.74205,0.36671 1.53155,0.5727 2.3244,0.62684 v 7.21144 l -6.0818,5.94796 a 0.50005002,0.50005002 0 1 0 0.69918,0.71468 l 5.953132,-5.82031 5.808421,5.54488 a 0.50010127,0.50010127 0 0 0 0.68937,-0.7245 l -6.068361,-5.7919 V 163.45 c 0.680204,-0.0625 1.347801,-0.23634 1.974551,-0.5147 v 4.83382 a 0.50005002,0.50005002 0 0 0 -0.008,0.093 v 3.71864 h 3.51761 a 0.50005002,0.50005002 0 1 0 0,-0.99994 h -2.51767 v -2.7187 a 0.50005002,0.50005002 0 0 0 -0.004,-0.0641 h 0.0114 v -5.4224 c 0.6102,-0.41963 1.15553,-0.95428 1.59938,-1.59939 0.42949,-0.62422 0.72895,-1.29991 0.90537,-1.99522 22.96749,-2.37277 42.6592,-18.12474 49.78972,-40.48691 7.72824,-24.236647 -1.06832,-50.684308 -21.74284,-65.46991 l 0.25476,-0.400492 c 0.14336,-0.225315 -1.79352,-1.712413 -4.34237,-3.334163 -0.39762,-0.252994 -0.78007,-0.487606 -1.1529,-0.713135 l 0.36484,-0.573609 -3.45664,-2.199349 -0.35554,0.559139 -3.2029,-2.038118 -1.54306,2.424658 0.0832,0.05323 -0.1478,0.125057 2.53577,3.010152 -0.27079,0.425298 2.33836,1.488281 0.61443,-0.965833 1.1188,0.711585 0.38706,-0.608749 c 0.36223,0.242171 0.73719,0.48908 1.13481,0.742074 2.54885,1.62175 4.71629,2.745574 4.85965,2.52026 l 0.22014,-0.345199 c 20.2773,14.53158 28.89724,40.481769 21.31085,64.273603 -6.97615,21.87807 -26.18262,37.30861 -48.62494,39.73659 0.009,-0.11951 0.015,-0.23911 0.017,-0.35864 19.55295,-2.26299 36.55503,-15.05294 43.9906,-33.64032 7.84682,-19.61542 3.52969,-41.907199 -10.82207,-57.156719 l 0.29043,-0.306958 c 0.18356,-0.193969 -1.435,-2.021919 -3.62924,-4.098459 -0.3423,-0.323942 -0.67314,-0.627574 -0.99632,-0.91984 l 0.46715,-0.49351 -2.97605,-2.816366 -0.45526,0.481625 -2.75746,-2.609144 -1.97507,2.087211 0.0718,0.0677 -0.1695,0.09457 1.91771,3.436999 -0.34675,0.366903 2.01332,1.904793 0.78651,-0.831474 0.96325,0.911056 0.49558,-0.523482 c 0.30962,0.306592 0.63076,0.619671 0.97307,0.943611 2.19424,2.07654 4.10868,3.59221 4.29224,3.398243 l 0.31729,-0.334347 c 14.0444,14.956044 18.26288,36.787188 10.57352,56.008988 -7.28736,18.21692 -23.93623,30.75503 -43.09401,32.98972 -0.0157,-0.10482 -0.0343,-0.20928 -0.0553,-0.31316 8.58161,-1.10756 16.95974,-4.56652 24.17113,-10.4345 19.08618,-15.53066 24.12857,-43.11586 11.95327,-64.702007 l 0.38448,-0.265618 c 0.21964,-0.151905 -0.98736,-2.2747 -2.70578,-4.759399 -0.26808,-0.387615 -0.52855,-0.7532 -0.78445,-1.105877 l 0.55862,-0.386022 -2.33061,-3.369821 -0.54518,0.376722 -2.15956,-3.122291 -2.36368,1.635043 0.0569,0.08113 -0.185,0.05736 1.16633,3.758944 -0.41496,0.286806 1.57665,2.279962 0.94206,-0.651121 0.75396,1.089856 0.59273,-0.410311 c 0.23968,0.363895 0.4895,0.737378 0.75758,1.124995 1.71842,2.4847 3.27884,4.362503 3.49849,4.210596 l 0.3421,-0.236678 c 11.86867,21.136541 6.91229,48.113711 -11.75071,63.300011 -7.10417,5.78077 -15.35765,9.1733 -23.80475,10.23659 -0.42629,-1.1113 -1.17365,-2.11231 -2.21485,-2.84944 a 0.50005002,0.50005002 0 0 0 -0.15244,-0.076 0.50005002,0.50005002 0 0 0 -0.12506,-0.11162 c -0.72058,-0.45424 -1.50029,-0.74066 -2.292884,-0.87281 -0.29722,-0.0496 -0.596487,-0.077 -0.895027,-0.0832 -2.089762,-0.0435 -4.153122,0.96165 -5.370732,2.83703 -0.24054,0.37048 -0.43514,0.75758 -0.58808,1.15446 -10.112428,-1.27584 -19.87603,-5.8757 -27.637032,-13.71438 C 49.063259,125.35896 46.095833,100.63189 56.943014,81.401775 l 0.429432,0.297141 c 0.219645,0.151905 1.78007,-1.725896 3.498494,-4.210596 0.268074,-0.387617 0.5179,-0.761103 0.757577,-1.124995 l 0.593245,0.410311 0.753959,-1.089856 0.941545,0.651121 1.576131,-2.279962 -0.413928,-0.286806 1.165821,-3.758944 -0.184485,-0.05736 0.05581,-0.08113 -2.363163,-1.635043 -2.159558,3.122291 -0.545187,-0.376722 -2.330607,3.369821 0.559139,0.386022 c -0.255902,0.352677 -0.516889,0.718262 -0.784965,1.105877 -1.718423,2.484699 -2.924905,4.607494 -2.705261,4.759399 l 0.295589,0.204639 c -11.128696,19.641727 -8.114932,44.924577 8.006747,61.207637 7.883589,7.9625 17.802287,12.65345 28.085628,13.98571 -0.0211,0.10482 -0.0397,0.20988 -0.0553,0.31522 C 72.865881,154.06772 56.162135,141.41849 48.93265,123.08554 41.359574,103.88129 45.641211,82.141138 59.662745,67.257419 l 0.374138,0.395842 c 0.183564,0.193967 2.098003,-1.321703 4.292244,-3.398243 0.342303,-0.32394 0.663962,-0.637019 0.973584,-0.943611 l 0.495577,0.523482 0.962732,-0.911056 0.786516,0.831474 2.013831,-1.904793 -0.347266,-0.366903 1.917195,-3.436999 -0.168981,-0.09457 0.07235,-0.0677 -1.975591,-2.087211 -2.757454,2.609144 -0.455786,-0.481625 -2.975529,2.816366 0.467155,0.49351 c -0.32318,0.292266 -0.654019,0.595898 -0.996322,0.91984 -2.194241,2.07654 -3.813318,3.90449 -3.629753,4.098459 l 0.233061,0.246496 C 44.616414,81.674868 40.236614,103.871 47.96475,123.46846 c 7.377411,18.70808 24.436321,31.61279 44.089817,33.88682 0.002,0.12103 0.008,0.24177 0.0176,0.36225 C 69.571786,155.28367 50.334971,139.78093 43.400171,117.83625 35.880406,94.040491 44.551375,68.132928 64.837623,53.64843 l 0.256315,0.402042 c 0.143362,0.225315 2.311317,-0.898509 4.860169,-2.520259 0.397623,-0.252994 0.772059,-0.499903 1.134297,-0.742074 l 0.387575,0.608748 1.118278,-0.711584 0.614431,0.965833 2.338877,-1.488282 -0.270785,-0.425297 2.535246,-3.010152 -0.148313,-0.125057 0.08372,-0.05323 z m -0.20102,3.534151 -1.167889,1.386479 -0.290936,-0.457853 z m 44.685122,0 1.45883,0.928626 -0.29094,0.457853 z m -51.155529,11.646319 -0.88315,1.582849 -0.373104,-0.394291 z m 57.625939,0 1.25625,1.188558 -0.3731,0.394291 z M 64.940976,71.570334 64.404058,73.301495 63.957574,72.99247 Z m 66.810394,0 0.9834,1.422136 -0.44649,0.309025 z M 97.596867,152.04708 c -1.86978,1.62324 -2.73388,3.80036 -2.84996,5.36608 -0.1876,-0.0445 -0.37762,-0.0972 -0.56844,-0.15503 0.17741,-1.27662 0.8178,-2.93166 2.67012,-5.0555 0.24533,-0.07 0.49531,-0.12189 0.74828,-0.15555 z m 1.458829,0.0114 c 0.0325,0.005 0.0652,0.007 0.0977,0.0129 0.24708,0.0416 0.491527,0.10728 0.733797,0.18551 -2.154836,1.62333 -3.394206,3.71799 -3.521746,5.38986 -0.20452,-0.0105 -0.41331,-0.0264 -0.62838,-0.0532 0.0836,-1.35747 1.0121,-3.79381 3.125392,-5.2741 a 0.50005002,0.50005002 0 0 0 0.193267,-0.26096 z m 1.858794,0.65164 c 0.0557,0.0324 0.11142,0.0651 0.16639,0.0997 a 0.50005002,0.50005002 0 0 0 0.13074,0.0584 0.50005002,0.50005002 0 0 0 0.10387,0.0956 c 1.38024,0.97714 2.13986,2.49645 2.20349,4.06331 -0.82472,-1.87086 -2.00021,-3.19094 -3.06751,-3.94239 0.1107,-0.0851 0.22193,-0.17002 0.33848,-0.25166 a 0.50005002,0.50005002 0 0 0 0.12454,-0.123 z m -6.291603,0.786 c -0.82374,1.29307 -1.23646,2.4317 -1.40612,3.41323 -0.0515,-0.0219 -0.10298,-0.0442 -0.15451,-0.0672 0.0646,-0.84701 0.33556,-1.69029 0.83147,-2.45411 0.21426,-0.33 0.45982,-0.6274 0.72916,-0.89194 z m 5.038966,0.26459 c 1.162037,0.74137 2.777087,2.53185 3.508827,5.28701 a 0.50005002,0.50005002 0 0 0 0.0129,0.0419 c -0.0799,0.21044 -0.17029,0.41865 -0.27906,0.62115 -0.27113,-1.12307 -0.77089,-2.14035 -1.34875,-2.99103 -0.76757,-1.12995 -1.654777,-1.96883 -2.429824,-2.39055 a 0.50005002,0.50005002 0 0 0 -0.006,-0.003 c 0.16924,-0.19113 0.34881,-0.38036 0.542087,-0.56534 z m -1.155994,1.33687 a 0.50005002,0.50005002 0 0 0 0.14159,0.11058 c 0.552507,0.30062 1.389261,1.05543 2.079971,2.07223 0.67441,0.9928 1.22035,2.23476 1.35702,3.5605 -0.15125,0.1601 -0.30895,0.31118 -0.47594,0.44856 -0.22372,-1.2367 -0.6902,-2.34903 -1.2578,-3.26285 -0.673437,-1.08421 -1.469441,-1.89297 -2.235518,-2.32493 0.11698,-0.19953 0.24689,-0.4012 0.390677,-0.60409 z m -0.838712,1.50016 c 0.282495,0.16793 0.610445,0.43875 0.944642,0.79479 -0.340867,0.11935 -0.759052,0.20443 -1.233512,0.24339 0.0401,-0.30765 0.13477,-0.65865 0.28887,-1.03818 z m -4.56872,1.34721 c 2.39118,0.95383 4.70975,0.95749 6.174309,0.26303 0.0777,0.11134 0.1542,0.22625 0.228407,0.34572 0.0389,0.0627 0.0753,0.12952 0.11317,0.1943 -0.580137,0.27246 -1.446851,0.52072 -2.424136,0.59479 -1.17973,0.0894 -2.51865,-0.061 -3.76153,-0.64027 a 0.50005002,0.50005002 0 0 0 -0.18449,-0.0517 c -0.0648,-0.23181 -0.11329,-0.4674 -0.14573,-0.7059 z m 6.969603,1.69654 v 5.2e-4 c 0.11143,0.25582 0.21191,0.52255 0.30023,0.79841 -1.193664,0.58957 -3.346273,0.89262 -6.092123,0.15037 a 0.50005002,0.50005002 0 0 0 -0.0191,-0.005 c -0.17626,-0.21167 -0.33099,-0.43665 -0.46974,-0.66973 1.18824,0.40455 2.39659,0.50684 3.47938,0.42478 1.107415,-0.0839 2.077199,-0.34824 2.801363,-0.69918 z m 0.54983,1.78903 c 0.0287,0.15393 0.0527,0.30988 0.0724,0.46768 -1.437564,0.74177 -3.176933,0.78788 -4.691693,0.0481 1.909425,0.23441 3.488316,-0.007 4.619353,-0.51574 z m -7.816053,4.56045 c -0.49803,0 -0.95143,0.23823 -1.312579,0.59169 -0.361148,0.35345 -0.654368,0.82534 -0.89607,1.38648 -0.483412,1.12228 -0.761709,2.61104 -0.761709,4.25814 v 9.6914 c 0,1.64709 0.278297,3.13533 0.761709,4.25762 0.241702,0.56114 0.534922,1.03509 0.89607,1.38855 0.361149,0.35346 0.814549,0.59221 1.312579,0.59221 h 10.873233 c 0.49804,0 0.9535,-0.23875 1.31465,-0.59221 0.36115,-0.35346 0.65281,-0.82741 0.89452,-1.38855 0.48341,-1.12229 0.76326,-2.61053 0.76326,-4.25762 v -9.6914 c 0,-1.6471 -0.27985,-3.13586 -0.76326,-4.25814 -0.24171,-0.56114 -0.53337,-1.03303 -0.89452,-1.38648 -0.36115,-0.35346 -0.81661,-0.59169 -1.31465,-0.59169 h -0.63768 v 0.99994 h 0.63768 c 0.18653,0 0.38487,0.0808 0.61547,0.30644 0.23059,0.22567 0.47042,0.59276 0.67541,1.06867 0.40999,0.95182 0.68161,2.32974 0.68161,3.86126 v 9.6914 c 0,1.5315 -0.27162,2.9115 -0.68161,3.86333 -0.20499,0.47591 -0.44482,0.84248 -0.67541,1.06815 -0.2306,0.22568 -0.42894,0.30644 -0.61547,0.30644 H 92.801807 c -0.18653,0 -0.38229,-0.0808 -0.61288,-0.30644 -0.23059,-0.22567 -0.47094,-0.59224 -0.675926,-1.06815 -0.409993,-0.95183 -0.681614,-2.33183 -0.681614,-3.86333 v -9.6914 c 0,-1.53152 0.271621,-2.90944 0.681614,-3.86126 0.204986,-0.47591 0.445336,-0.843 0.675926,-1.06867 0.23059,-0.22568 0.42635,-0.30644 0.61288,-0.30644 h 0.4377 v -0.99994 z" style="color:#000000;font-style:normal;font-variant:normal;font-weight:normal;font-stretch:normal;font-size:medium;line-height:normal;font-family:sans-serif;font-variant-ligatures:normal;font-variant-position:normal;font-variant-caps:normal;font-variant-numeric:normal;font-variant-alternates:normal;font-feature-settings:normal;text-indent:0;text-align:start;text-decoration:none;text-decoration-line:none;text-decoration-style:solid;text-decoration-color:#000000;letter-spacing:normal;word-spacing:normal;text-transform:none;writing-mode:lr-tb;direction:ltr;text-orientation:mixed;dominant-baseline:auto;baseline-shift:baseline;text-anchor:start;white-space:normal;shape-padding:0;clip-rule:nonzero;display:inline;overflow:visible;visibility:visible;opacity:1;isolation:auto;mix-blend-mode:normal;color-interpolation:sRGB;color-interpolation-filters:linearRGB;solid-color:#000000;solid-opacity:1;vector-effect:none;fill:#ff0000;fill-opacity:1;fill-rule:nonzero;stroke:none;stroke-width:1.04133427;stroke-linecap:butt;stroke-linejoin:miter;stroke-miterlimit:4;stroke-dasharray:none;stroke-dashoffset:0;stroke-opacity:1;color-rendering:auto;image-rendering:auto;shape-rendering:auto;text-rendering:auto;enable-background:accumulate"/>
  </g>
  <path d="M 33.817055,92.585167 A 65.742065,65.742065 0 0 1 104.03476,37.819248 65.742065,65.742065 0 0 1 164.4151,103.27188 65.742065,65.742065 0 0 1 104.17514,168.85373" id="path833" style="fill:none;fill-opacity:1;stroke:none;stroke-width:0.50000006;stroke-linecap:round;stroke-miterlimit:4;stroke-dasharray:none;stroke-opacity:1"/>
  <g transform="translate(3.3409192,0.1139994)" id="text844" style="font-style:normal;font-variant:normal;font-weight:normal;font-stretch:normal;font-size:141.1111145px;line-height:1.25;font-family:Anton;-inkscape-font-specification:Anton;letter-spacing:0px;word-spacing:0px;fill:#ff0000;fill-opacity:1;stroke:none;stroke-width:0.26458335" aria-label="CHAOSZONE">
    <path id="path851" style="font-size:43.39167023px" d="m 33.279846,82.564758 q -1.284437,3.8713 -4.493157,5.412602 -3.195056,1.500118 -7.437013,0.0927 L 5.0407922,82.65903 q -5.27155845,-1.749021 -7.2516463,-4.737582 -1.9800878,-2.988562 -0.4906873,-7.477623 1.2981013,-3.912485 4.232197,-5.59062 2.9340956,-1.678135 6.9701326,-0.339041 l 6.0952398,2.022305 -2.336583,7.042473 -5.2303742,-1.735357 Q 5.505261,71.338009 4.8057062,71.517366 q -0.6995547,0.179357 -1.0001676,1.085406 -0.3142772,0.947234 0.2216896,1.536518 0.549631,0.5481 1.8263365,0.971691 l 17.7503253,5.88928 q 1.400258,0.464584 2.195845,0.271371 0.754403,-0.206877 1.027688,-1.030558 0.546569,-1.647362 -2.130395,-2.535537 l -6.383527,-2.117954 2.36391,-7.124841 6.671817,2.213604 q 8.895755,2.951473 5.930618,11.888412 z"/>
    <path id="path853" style="font-size:43.39167023px" d="M 37.183128,71.191833 7.3409102,48.859083 11.786662,42.918432 22.452041,50.899985 24.557923,48.085993 13.892544,40.104439 18.338295,34.163788 48.180512,56.496539 43.734761,62.43719 30.185908,52.297757 28.080026,55.11175 41.628879,65.251183 Z"/>
    <path id="path855" style="font-size:43.39167023px" d="M 49.849283,54.748601 31.615102,22.040877 42.001539,14.860178 66.124937,43.49637 l -5.817832,4.022179 -3.858263,-4.665107 -3.711991,2.566298 3.073034,5.207978 z m -0.02904,-14.539483 2.783994,-1.924724 -12.139692,-14.659816 -0.285538,0.197408 z"/>
    <path id="path857" style="font-size:43.39167023px" d="m 76.976147,40.44939 q -4.331295,1.26675 -7.347594,-0.69928 -3.028479,-2.007676 -4.429212,-6.797088 L 60.217604,15.919374 q -1.352012,-4.622824 0.214833,-7.6127945 1.554665,-3.0316179 5.88596,-4.2983677 4.331294,-1.2667497 7.274512,0.4493974 2.931037,1.6745 4.283049,6.2973238 l 4.981737,17.033648 q 1.412913,4.831059 -0.06867,8.112559 -1.481583,3.2815 -5.812877,4.54825 z m -1.924485,-6.580235 q 0.957882,-0.280147 1.047453,-1.210531 0.08957,-0.930383 -0.34892,-2.429677 l -5.11572,-17.491766 q -0.341048,-1.166118 -0.881289,-1.776675 -0.510775,-0.664385 -1.468657,-0.384239 -1.790824,0.523752 -0.999105,3.230811 l 5.10354,17.450119 q 0.45067,1.540941 1.056919,2.222613 0.606249,0.681671 1.605779,0.389345 z"/>
    <path id="path859" style="font-size:43.39167023px" d="M 97.676989,37.872335 Q 92.602231,37.727489 90.418587,35.14742 88.234943,32.567352 88.394645,26.972105 l 0.103993,-3.643417 7.330207,0.209223 -0.132467,4.641019 q -0.07923,2.775936 1.699102,2.826694 0.997602,0.02847 1.404062,-0.524246 0.407698,-0.596094 0.447314,-1.984062 0.052,-1.821708 -0.348317,-3.005186 -0.399076,-1.226852 -1.070776,-2.027393 -0.627088,-0.842676 -2.313766,-2.583782 l -3.118064,-3.301289 q -3.626172,-3.749885 -3.499896,-8.1740336 0.13618,-4.7711406 2.375447,-7.1815587 2.283879,-2.45255412 6.491157,-2.33246767 5.031389,0.14360853 7.166699,2.89593517 2.13656,2.7089526 1.97438,8.3909478 L 99.31327,10.961838 99.34294,8.4015334 Q 99.363985,7.6641753 98.942625,7.2180552 98.564639,6.7731731 97.827281,6.752127 96.9598,6.7273669 96.512442,7.1921009 q -0.447358,0.464734 -0.47088,1.2888402 -0.052,1.8217079 1.974246,3.8329629 l 4.218552,4.287705 q 1.476,1.518046 2.43522,2.891114 0.96046,1.329695 1.5157,3.168735 0.55648,1.795666 0.48592,4.267985 -0.15723,5.508498 -2.27752,8.312997 -2.07567,2.762362 -6.716691,2.629895 z"/>
    <path id="path861" style="font-size:43.39167023px" d="m 107.94559,38.180684 2.09837,-6.435647 15.41668,-19.847086 -7.30198,-2.3808497 2.12527,-6.5181545 14.81024,4.8289543 -2.01767,6.1881209 -15.70365,20.027356 7.9208,2.582617 -2.12528,6.518154 z"/>
    <path id="path863" style="font-size:43.39167023px" d="m 132.87161,49.673579 q -3.69355,-2.592777 -4.04073,-6.176463 -0.32224,-3.6192 2.54477,-7.703408 l 10.19659,-14.525576 q 2.76729,-3.942149 6.08121,-4.584731 3.33884,-0.678097 7.03238,1.91468 3.69355,2.592776 4.19031,5.963373 0.52169,3.335081 -2.2456,7.27723 L 146.43395,46.36426 q -2.89195,4.119723 -6.38037,5.010909 -3.48843,0.891186 -7.18197,-1.70159 z m 3.93902,-5.611347 q 0.81684,0.573402 1.59957,0.06255 0.78273,-0.510852 1.68023,-1.789387 l 10.47083,-14.916239 q 0.69806,-0.994416 0.83776,-1.797613 0.20014,-0.813781 -0.6167,-1.387184 -1.52714,-1.072013 -3.14762,1.236452 l -10.4459,14.880724 q -0.92243,1.31405 -1.07648,2.213207 -0.15404,0.899157 0.69831,1.49749 z"/>
    <path id="path865" style="font-size:43.39167023px" d="m 142.85097,56.886175 30.01067,-22.105866 4.55499,6.183805 -12.32598,13.33685 14.359,-10.576847 4.27192,5.799501 -30.01067,22.105867 -4.32339,-5.869375 12.80965,-14.070361 -15.02281,11.065801 z"/>
    <path id="path867" style="font-size:43.39167023px" d="m 155.05869,74.774819 35.21157,-12.225191 4.89577,14.101023 -6.80456,2.362494 -2.40519,-6.927538 -6.84556,2.376725 2.30557,6.640598 -6.6406,2.305566 -2.30556,-6.640598 -8.0753,2.803681 2.56174,7.378443 -6.84556,2.376725 z"/>
  </g>
</svg>